<?xml version="1.0" standalone="no"?>
<!DOCTYPE svg PUBLIC "-//W3C//DTD SVG 20010904//EN"
 "http://www.w3.org/TR/2001/REC-SVG-20010904/DTD/svg10.dtd">
<svg version="1.0" xmlns="http://www.w3.org/2000/svg"
 width="1024.000000pt" height="1024.000000pt" viewBox="0 0 1024.000000 1024.000000"
 preserveAspectRatio="xMidYMid meet">

<g transform="translate(0.000000,1024.000000) scale(0.100000,-0.100000)"
fill="#000000" stroke="none">
<path d="M5305 8194 c-184 -30 -382 -93 -534 -172 -148 -77 -266 -166 -413
-313 l-136 -137 -84 25 c-253 73 -542 53 -790 -57 -288 -126 -544 -407 -665
-729 -52 -137 -74 -257 -79 -421 -3 -85 -1 -175 3 -200 l9 -45 -56 -42 c-127
-95 -277 -278 -353 -428 -38 -77 -84 -215 -104 -312 -26 -133 -24 -386 5 -521
52 -238 180 -471 357 -647 147 -148 294 -235 485 -287 l85 -23 2080 0 2080 0
90 23 c302 76 581 314 738 627 39 79 100 266 118 365 21 111 16 349 -10 470
-80 375 -331 705 -666 875 l-78 40 7 106 c19 324 -87 683 -292 985 -289 426
-686 696 -1182 805 -126 28 -479 35 -615 13z m422 -539 c353 -75 669 -310 888
-660 24 -38 41 -71 37 -73 -8 -2 -97 33 -467 183 -268 109 -444 173 -539 195
-99 24 -237 26 -344 4 -73 -14 -332 -98 -544 -176 l-97 -36 38 77 c129 256
367 432 656 486 96 18 288 18 372 0z m-1724 -541 c70 -15 248 -95 295 -132
l24 -18 -159 -59 c-840 -309 -877 -324 -911 -372 -36 -53 -42 -92 -43 -287
l-1 -191 -19 75 c-28 109 -27 346 2 456 42 163 160 335 290 424 152 104 346
143 522 104z m1642 -47 c39 -14 153 -59 255 -100 284 -115 622 -253 756 -308
67 -28 136 -62 154 -77 l33 -28 -344 -139 c-189 -76 -468 -190 -619 -253 -514
-213 -817 -331 -884 -343 -119 -22 -92 -32 -846 296 -168 73 -387 167 -488
210 -101 43 -180 81 -175 84 4 4 49 22 98 40 50 18 124 45 165 61 89 34 170
64 470 175 199 73 357 132 875 325 122 46 207 73 265 84 60 11 216 -3 285 -27z
m1205 -1226 l0 -459 -32 -12 c-18 -8 -71 -30 -118 -51 -47 -20 -143 -63 -215
-94 -71 -31 -150 -66 -175 -77 -25 -12 -79 -35 -120 -53 -114 -49 -478 -209
-630 -277 -206 -92 -505 -218 -517 -218 -2 0 -3 208 -1 463 3 511 1 495 68
524 53 23 685 285 1075 445 518 213 650 267 658 267 4 1 7 -205 7 -458z
m-3362 305 c26 -13 146 -65 267 -116 234 -99 814 -352 956 -418 48 -22 93 -50
102 -63 15 -21 17 -72 17 -481 l0 -458 -97 49 c-54 27 -298 144 -543 261 -245
117 -516 248 -602 291 l-158 79 0 440 c0 242 2 440 5 440 3 0 27 -11 53 -24z
m3747 -273 c117 -59 195 -115 276 -199 108 -114 169 -229 200 -378 45 -217 5
-453 -108 -639 -106 -175 -251 -288 -458 -358 l-70 -24 -830 -2 -830 -2 140
48 c125 43 214 79 352 142 24 10 45 19 48 19 3 0 58 24 122 54 65 30 219 99
343 154 399 178 663 298 765 348 93 46 100 51 100 79 0 23 6 32 29 40 24 8 31
6 50 -16 14 -16 27 -23 37 -18 51 25 138 62 143 61 3 -1 17 7 30 19 25 22 25
29 -4 144 -19 75 -91 222 -143 291 -59 78 -166 178 -259 245 -83 59 -63 56 67
-8z m-4023 -386 c5 -232 8 -279 23 -308 34 -67 38 -70 460 -274 121 -59 301
-147 400 -195 99 -49 239 -116 310 -150 72 -34 182 -87 245 -118 l115 -55 110
1 c106 0 108 0 55 -11 -35 -7 -47 -12 -32 -15 14 -2 22 -10 22 -23 0 -15 -7
-19 -35 -19 -46 0 -45 -15 3 -28 28 -8 -16 -10 -180 -11 -168 -1 -218 2 -219
12 -1 6 -2 26 -3 42 l-1 30 -550 5 c-527 6 -553 7 -629 28 -215 60 -391 194
-476 363 -17 32 -42 100 -56 150 -24 82 -26 102 -21 217 4 103 9 141 31 202
49 140 153 284 256 355 33 23 143 74 161 75 3 0 8 -123 11 -273z"/>
<path d="M6526 6603 c8 -40 -9 -69 -54 -92 -20 -10 -248 -107 -507 -214 -258
-107 -544 -227 -634 -267 -167 -72 -310 -120 -362 -120 -15 0 -31 -5 -35 -12
-10 -16 112 -3 202 22 40 11 148 51 240 90 341 143 452 190 609 254 351 142
521 218 547 243 34 33 38 81 8 108 -20 18 -20 18 -14 -12z"/>
<path d="M7593 5120 c0 -25 2 -35 4 -22 2 12 2 32 0 45 -2 12 -4 2 -4 -23z"/>
<path d="M7582 4985 c0 -16 2 -22 5 -12 2 9 2 23 0 30 -3 6 -5 -1 -5 -18z"/>
<path d="M5718 4363 c6 -2 18 -2 25 0 6 3 1 5 -13 5 -14 0 -19 -2 -12 -5z"/>
<path d="M5858 4363 c6 -2 18 -2 25 0 6 3 1 5 -13 5 -14 0 -19 -2 -12 -5z"/>
<path d="M6028 4363 c12 -2 30 -2 40 0 9 3 -1 5 -23 4 -22 0 -30 -2 -17 -4z"/>
<path d="M3059 5253 c-13 -16 -12 -17 4 -4 9 7 17 15 17 17 0 8 -8 3 -21 -13z"/>
<path d="M2981 5174 c0 -11 3 -14 6 -6 3 7 2 16 -1 19 -3 4 -6 -2 -5 -13z"/>
<path d="M4745 4370 c3 -5 8 -10 11 -10 2 0 4 5 4 10 0 6 -5 10 -11 10 -5 0
-7 -4 -4 -10z"/>
<path d="M4412 3701 l-2274 -6 -19 -24 c-26 -32 -24 -84 4 -116 l22 -26 2965
1 c2866 0 2966 1 2990 19 37 27 40 92 6 126 l-25 25 -459 0 c-252 0 -566 1
-698 3 -131 2 -1262 1 -2512 -2z"/>
<path d="M2121 3126 c-63 -23 -61 -7 -61 -488 0 -423 1 -439 20 -458 41 -41
117 -36 151 10 17 22 19 48 20 258 0 127 4 232 9 232 4 0 13 -12 18 -27 5 -16
30 -84 55 -153 67 -186 117 -308 133 -321 24 -20 62 -2 84 41 12 23 52 125 89
228 105 285 96 285 99 2 2 -234 3 -245 24 -267 42 -45 130 -36 158 16 6 13 10
173 10 446 l0 426 -24 24 c-30 30 -95 48 -143 39 -66 -12 -85 -43 -161 -254
-38 -107 -75 -212 -82 -233 -6 -21 -16 -37 -22 -35 -6 2 -19 26 -29 53 -11 28
-49 129 -86 225 -36 96 -72 185 -80 197 -17 25 -82 53 -121 52 -15 0 -42 -6
-61 -13z"/>
<path d="M4399 3125 c-15 -8 -30 -22 -35 -32 -10 -21 -18 -802 -9 -852 3 -18
17 -44 30 -57 24 -23 28 -24 193 -24 155 0 172 2 195 20 34 27 43 70 23 109
-9 16 -22 33 -28 38 -7 4 -60 10 -118 13 l-105 5 -5 372 c-5 359 -6 373 -26
393 -27 27 -82 34 -115 15z"/>
<path d="M7660 3112 l-30 -30 0 -437 0 -437 29 -29 c41 -40 91 -40 132 0 27
27 29 35 29 108 1 70 3 82 29 116 l29 38 63 -113 c97 -173 139 -204 220 -163
61 32 56 82 -23 209 -17 28 -53 91 -79 140 l-49 89 68 91 c103 137 112 152
112 183 0 65 -91 101 -153 60 -15 -10 -68 -78 -117 -152 -50 -74 -92 -135 -93
-135 -2 0 -4 98 -5 217 -2 214 -3 218 -26 241 -13 14 -40 26 -64 29 -36 5 -45
2 -72 -25z"/>
<path d="M5930 3117 c-50 -25 -50 -31 -48 -490 l3 -429 25 -20 c22 -18 37 -19
180 -16 l156 3 76 38 c179 88 266 270 238 499 -26 218 -168 381 -364 417 -81
15 -235 14 -266 -2z m291 -208 c53 -27 106 -93 125 -158 20 -69 15 -207 -10
-266 -34 -80 -106 -131 -192 -137 l-49 -3 -3 297 -2 298 47 -7 c27 -3 64 -14
84 -24z"/>
<path d="M3306 2950 c-41 -13 -73 -46 -90 -94 -8 -23 -40 -122 -71 -221 -31
-99 -72 -228 -91 -287 -36 -110 -37 -135 -6 -170 22 -26 74 -33 109 -15 28 15
43 36 63 90 l10 27 124 0 124 0 26 -54 c30 -60 65 -82 115 -71 38 8 71 48 71
86 0 16 -10 52 -21 81 -27 66 -36 93 -114 350 -34 115 -70 219 -79 233 -27 41
-112 63 -170 45z m84 -335 c18 -66 34 -130 37 -142 5 -22 3 -23 -72 -23 -75 0
-77 1 -71 23 4 12 21 77 38 144 18 67 33 121 34 120 1 -1 16 -56 34 -122z"/>
<path d="M3925 2941 c-114 -30 -184 -120 -185 -235 0 -45 6 -69 25 -102 32
-55 64 -77 182 -125 135 -55 159 -82 112 -125 -32 -29 -102 -25 -166 9 -65 33
-97 34 -128 3 -60 -60 -36 -122 69 -176 63 -32 76 -35 155 -35 74 0 94 4 143
28 93 46 147 153 128 256 -14 78 -85 144 -192 180 -137 46 -176 88 -122 130
34 27 85 27 143 1 24 -11 53 -20 66 -20 27 0 85 61 85 89 0 30 -38 70 -93 98
-56 28 -163 40 -222 24z"/>
<path d="M5028 2937 c-92 -26 -163 -91 -193 -176 -21 -61 -22 -376 0 -427 26
-63 73 -112 138 -144 53 -26 75 -31 140 -31 142 -1 230 50 283 164 22 49 24
63 24 233 0 173 -1 182 -26 232 -29 59 -79 107 -141 134 -56 25 -164 32 -225
15z m160 -187 c18 -11 37 -32 42 -46 14 -35 13 -277 -1 -307 -16 -36 -60 -57
-119 -57 -44 0 -56 4 -81 29 l-29 29 0 147 c0 84 5 155 11 166 16 30 69 59
109 59 19 0 50 -9 68 -20z"/>
<path d="M6705 2925 l-25 -24 0 -344 c0 -330 1 -345 20 -370 11 -14 33 -28 49
-32 36 -8 95 16 110 43 16 30 15 676 -1 705 -18 35 -40 46 -86 47 -32 0 -49
-6 -67 -25z"/>
<path d="M7168 2937 c-138 -44 -213 -193 -159 -313 26 -58 80 -97 197 -144
118 -48 143 -68 126 -104 -24 -53 -116 -55 -213 -6 -51 26 -71 25 -103 -6 -63
-64 -12 -152 114 -194 51 -18 79 -21 132 -17 161 13 257 103 258 240 0 112
-54 173 -204 231 -106 42 -136 60 -136 86 0 10 12 28 26 39 34 27 93 27 144 1
55 -28 77 -25 116 14 46 46 44 74 -5 119 -66 60 -198 84 -293 54z"/>
</g>
</svg>
